<svg width="127" height="176" viewBox="0 0 127 176" fill="none" xmlns="http://www.w3.org/2000/svg">
<rect width="127" height="176" fill="#7C7C7C"/>
<rect width="127" height="176" fill="black"/>
<path d="M26.098 17.5469H22.9872C22.9304 17.1444 22.8144 16.7869 22.6392 16.4744C22.464 16.1572 22.2391 15.8873 21.9645 15.6648C21.6899 15.4422 21.3726 15.2718 21.0128 15.1534C20.6577 15.035 20.2718 14.9759 19.8551 14.9759C19.1023 14.9759 18.4465 15.1629 17.8878 15.5369C17.3291 15.9062 16.8958 16.446 16.5881 17.1562C16.2803 17.8617 16.1264 18.7187 16.1264 19.7273C16.1264 20.7642 16.2803 21.6354 16.5881 22.3409C16.9006 23.0464 17.3362 23.5791 17.8949 23.9389C18.4536 24.2988 19.0999 24.4787 19.8338 24.4787C20.2457 24.4787 20.6269 24.4242 20.9773 24.3153C21.3324 24.2064 21.6473 24.0478 21.9219 23.8395C22.1965 23.6264 22.4238 23.3684 22.6037 23.0653C22.7884 22.7623 22.9162 22.4167 22.9872 22.0284L26.098 22.0426C26.0175 22.7102 25.8163 23.3542 25.4943 23.9744C25.1771 24.59 24.7486 25.1416 24.2088 25.6293C23.6738 26.1122 23.0346 26.4957 22.2912 26.7798C21.5526 27.0592 20.7169 27.1989 19.7841 27.1989C18.4867 27.1989 17.3267 26.9053 16.304 26.3182C15.286 25.7311 14.4811 24.8812 13.8892 23.7685C13.3021 22.6558 13.0085 21.3087 13.0085 19.7273C13.0085 18.1411 13.3068 16.7917 13.9034 15.679C14.5 14.5663 15.3097 13.7187 16.3324 13.1364C17.3551 12.5492 18.5057 12.2557 19.7841 12.2557C20.6269 12.2557 21.4081 12.3741 22.1278 12.6108C22.8523 12.8475 23.4938 13.1932 24.0526 13.6477C24.6113 14.0975 25.0658 14.6491 25.4162 15.3026C25.7713 15.956 25.9986 16.7041 26.098 17.5469ZM31.3572 27.206C30.6612 27.206 30.041 27.0852 29.4964 26.8438C28.9519 26.5975 28.5211 26.2353 28.2038 25.7571C27.8913 25.2741 27.7351 24.6728 27.7351 23.9531C27.7351 23.3471 27.8464 22.8381 28.0689 22.4261C28.2914 22.0142 28.5945 21.6828 28.978 21.4318C29.3615 21.1809 29.7971 20.9915 30.2848 20.8636C30.7772 20.7358 31.2933 20.6458 31.8331 20.5938C32.4676 20.5275 32.9789 20.4659 33.3672 20.4091C33.7554 20.3475 34.0372 20.2576 34.2124 20.1392C34.3875 20.0208 34.4751 19.8456 34.4751 19.6136V19.571C34.4751 19.1212 34.3331 18.7732 34.049 18.527C33.7696 18.2808 33.3719 18.1577 32.8558 18.1577C32.3113 18.1577 31.8781 18.2784 31.5561 18.5199C31.2341 18.7566 31.0211 19.0549 30.9169 19.4148L28.1186 19.1875C28.2607 18.5246 28.54 17.9517 28.9567 17.4688C29.3733 16.9811 29.9107 16.607 30.5689 16.3466C31.2318 16.0814 31.9988 15.9489 32.87 15.9489C33.4761 15.9489 34.0561 16.0199 34.6101 16.1619C35.1688 16.304 35.6636 16.5241 36.0945 16.8224C36.5301 17.1207 36.8733 17.5043 37.1243 17.973C37.3752 18.437 37.5007 18.9934 37.5007 19.642V27H34.6314V25.4872H34.5462C34.371 25.8281 34.1366 26.1288 33.843 26.3892C33.5495 26.6449 33.1967 26.8461 32.7848 26.9929C32.3729 27.1349 31.897 27.206 31.3572 27.206ZM32.2237 25.1179C32.6688 25.1179 33.0618 25.0303 33.4027 24.8551C33.7436 24.6752 34.0111 24.4337 34.2053 24.1307C34.3994 23.8277 34.4964 23.4844 34.4964 23.1009V21.9432C34.4018 22.0047 34.2715 22.0616 34.1058 22.1136C33.9448 22.161 33.7625 22.206 33.5589 22.2486C33.3554 22.2865 33.1518 22.322 32.9482 22.3551C32.7446 22.3835 32.5599 22.4096 32.3942 22.4332C32.0391 22.4853 31.7289 22.5682 31.4638 22.6818C31.1986 22.7955 30.9927 22.9493 30.8459 23.1435C30.6991 23.3329 30.6257 23.5696 30.6257 23.8537C30.6257 24.2656 30.7749 24.5805 31.0732 24.7983C31.3762 25.0114 31.7597 25.1179 32.2237 25.1179ZM39.848 27V16.0909H42.7812V17.9943H42.8949C43.0938 17.3172 43.4276 16.8059 43.8963 16.4602C44.3651 16.1098 44.9048 15.9347 45.5156 15.9347C45.6671 15.9347 45.8305 15.9441 46.0057 15.9631C46.1809 15.982 46.3348 16.008 46.4673 16.0412V18.7259C46.3253 18.6832 46.1288 18.6454 45.8778 18.6122C45.6269 18.5791 45.3973 18.5625 45.1889 18.5625C44.7438 18.5625 44.3461 18.6596 43.9957 18.8537C43.6501 19.0431 43.3755 19.3082 43.1719 19.6491C42.973 19.9901 42.8736 20.383 42.8736 20.8281V27H39.848ZM51.5437 27.1776C50.7151 27.1776 49.9646 26.9645 49.2923 26.5384C48.6246 26.1075 48.0943 25.4754 47.7013 24.642C47.3131 23.804 47.119 22.7765 47.119 21.5597C47.119 20.3097 47.3202 19.2704 47.7227 18.4418C48.1251 17.6084 48.6602 16.9858 49.3278 16.5739C50.0001 16.1572 50.7364 15.9489 51.5366 15.9489C52.1474 15.9489 52.6564 16.053 53.0636 16.2614C53.4755 16.465 53.8069 16.7206 54.0579 17.0284C54.3136 17.3314 54.5077 17.6297 54.6403 17.9233H54.7326V12.4545H57.7511V27H54.7681V25.2528H54.6403C54.4982 25.5559 54.297 25.8565 54.0366 26.1548C53.7809 26.4484 53.4471 26.6922 53.0352 26.8864C52.628 27.0805 52.1308 27.1776 51.5437 27.1776ZM52.5025 24.7699C52.9902 24.7699 53.4021 24.6373 53.7383 24.3722C54.0792 24.1023 54.3396 23.7259 54.5195 23.2429C54.7042 22.7599 54.7965 22.1941 54.7965 21.5455C54.7965 20.8968 54.7066 20.3333 54.5266 19.8551C54.3467 19.3769 54.0863 19.0076 53.7454 18.7472C53.4045 18.4867 52.9902 18.3565 52.5025 18.3565C52.0053 18.3565 51.5863 18.4915 51.2454 18.7614C50.9045 19.0312 50.6464 19.4053 50.4712 19.8835C50.296 20.3617 50.2085 20.9157 50.2085 21.5455C50.2085 22.1799 50.296 22.741 50.4712 23.2287C50.6512 23.7116 50.9092 24.0904 51.2454 24.3651C51.5863 24.6349 52.0053 24.7699 52.5025 24.7699ZM69.3153 19.2017L66.5455 19.3722C66.4981 19.1354 66.3963 18.9223 66.2401 18.733C66.0838 18.5388 65.8778 18.3849 65.6222 18.2713C65.3712 18.1529 65.0705 18.0938 64.7202 18.0938C64.2514 18.0938 63.8561 18.1932 63.5341 18.392C63.2121 18.5862 63.0511 18.8466 63.0511 19.1733C63.0511 19.4337 63.1553 19.6539 63.3636 19.8338C63.572 20.0137 63.9295 20.1581 64.4361 20.267L66.4105 20.6648C67.4711 20.8826 68.2618 21.233 68.7827 21.7159C69.3035 22.1989 69.5639 22.8333 69.5639 23.6193C69.5639 24.3343 69.3532 24.9616 68.9318 25.5014C68.5152 26.0412 67.9422 26.4626 67.2131 26.7656C66.4886 27.0639 65.6529 27.2131 64.706 27.2131C63.2618 27.2131 62.1113 26.9124 61.2543 26.3111C60.402 25.705 59.9025 24.8812 59.7557 23.8395L62.7315 23.6832C62.8215 24.1236 63.0393 24.4598 63.3849 24.6918C63.7306 24.919 64.1733 25.0327 64.7131 25.0327C65.2434 25.0327 65.6695 24.9309 65.9915 24.7273C66.3182 24.5189 66.4839 24.2514 66.4886 23.9247C66.4839 23.6501 66.3679 23.4252 66.1406 23.25C65.9134 23.0701 65.563 22.9328 65.0895 22.8381L63.2003 22.4616C62.1349 22.2486 61.3419 21.8793 60.821 21.3537C60.3049 20.8281 60.0469 20.1581 60.0469 19.3438C60.0469 18.643 60.2363 18.0393 60.6151 17.5327C60.9986 17.026 61.536 16.6354 62.2273 16.3608C62.9233 16.0862 63.7377 15.9489 64.6705 15.9489C66.0483 15.9489 67.1326 16.2401 67.9233 16.8224C68.7188 17.4048 69.1828 18.1979 69.3153 19.2017ZM15.7713 47H12.4759L17.4972 32.4545H21.4602L26.4744 47H23.179L19.5355 35.7784H19.4219L15.7713 47ZM15.5653 41.2827H23.3494V43.6832H15.5653V41.2827ZM32.5753 51.3182C31.5952 51.3182 30.7547 51.1832 30.054 50.9134C29.358 50.6482 28.804 50.286 28.392 49.8267C27.9801 49.3674 27.7126 48.8513 27.5895 48.2784L30.3878 47.902C30.473 48.1198 30.608 48.3234 30.7926 48.5128C30.9773 48.7022 31.2211 48.8537 31.5241 48.9673C31.8319 49.0857 32.206 49.1449 32.6463 49.1449C33.3045 49.1449 33.8466 48.9839 34.2727 48.6619C34.7036 48.3447 34.919 47.812 34.919 47.0639V45.0682H34.7912C34.6586 45.3712 34.4598 45.6577 34.1946 45.9276C33.9295 46.1974 33.5885 46.4176 33.1719 46.5881C32.7552 46.7585 32.258 46.8438 31.6804 46.8438C30.8613 46.8438 30.1155 46.6544 29.4432 46.2756C28.7756 45.892 28.2429 45.3073 27.8452 44.5213C27.4522 43.7306 27.2557 42.7315 27.2557 41.5241C27.2557 40.2884 27.4569 39.2562 27.8594 38.4276C28.2618 37.599 28.7969 36.9787 29.4645 36.5668C30.1368 36.1548 30.8731 35.9489 31.6733 35.9489C32.2841 35.9489 32.7955 36.053 33.2074 36.2614C33.6193 36.465 33.9508 36.7206 34.2017 37.0284C34.4574 37.3314 34.6539 37.6297 34.7912 37.9233H34.9048V36.0909H37.9091V47.1065C37.9091 48.0346 37.6818 48.8111 37.2273 49.4361C36.7727 50.0611 36.143 50.5298 35.3381 50.8423C34.5379 51.1596 33.617 51.3182 32.5753 51.3182ZM32.6392 44.571C33.1269 44.571 33.5388 44.4503 33.875 44.2088C34.2159 43.9626 34.4763 43.6122 34.6562 43.1577C34.8409 42.6984 34.9332 42.1491 34.9332 41.5099C34.9332 40.8707 34.8433 40.3168 34.6634 39.848C34.4834 39.3745 34.223 39.0076 33.8821 38.7472C33.5412 38.4867 33.1269 38.3565 32.6392 38.3565C32.142 38.3565 31.723 38.4915 31.3821 38.7614C31.0412 39.0265 30.7831 39.3958 30.608 39.8693C30.4328 40.3428 30.3452 40.8897 30.3452 41.5099C30.3452 42.1397 30.4328 42.6842 30.608 43.1435C30.7879 43.598 31.0459 43.9508 31.3821 44.2017C31.723 44.4479 32.142 44.571 32.6392 44.571ZM43.4276 47.206C42.7315 47.206 42.1113 47.0852 41.5668 46.8438C41.0223 46.5975 40.5914 46.2353 40.2741 45.7571C39.9616 45.2741 39.8054 44.6728 39.8054 43.9531C39.8054 43.3471 39.9167 42.8381 40.1392 42.4261C40.3617 42.0142 40.6648 41.6828 41.0483 41.4318C41.4318 41.1809 41.8674 40.9915 42.3551 40.8636C42.8475 40.7358 43.3636 40.6458 43.9034 40.5938C44.5379 40.5275 45.0492 40.4659 45.4375 40.4091C45.8258 40.3475 46.1075 40.2576 46.2827 40.1392C46.4579 40.0208 46.5455 39.8456 46.5455 39.6136V39.571C46.5455 39.1212 46.4034 38.7732 46.1193 38.527C45.84 38.2808 45.4422 38.1577 44.9261 38.1577C44.3816 38.1577 43.9484 38.2784 43.6264 38.5199C43.3045 38.7566 43.0914 39.0549 42.9872 39.4148L40.1889 39.1875C40.331 38.5246 40.6103 37.9517 41.027 37.4688C41.4437 36.9811 41.9811 36.607 42.6392 36.3466C43.3021 36.0814 44.0691 35.9489 44.9403 35.9489C45.5464 35.9489 46.1264 36.0199 46.6804 36.1619C47.2391 36.304 47.7339 36.5241 48.1648 36.8224C48.6004 37.1207 48.9437 37.5043 49.1946 37.973C49.4455 38.437 49.571 38.9934 49.571 39.642V47H46.7017V45.4872H46.6165C46.4413 45.8281 46.2069 46.1288 45.9134 46.3892C45.6198 46.6449 45.267 46.8461 44.8551 46.9929C44.4432 47.1349 43.9673 47.206 43.4276 47.206ZM44.294 45.1179C44.7391 45.1179 45.1321 45.0303 45.473 44.8551C45.8139 44.6752 46.0814 44.4337 46.2756 44.1307C46.4697 43.8277 46.5668 43.4844 46.5668 43.1009V41.9432C46.4721 42.0047 46.3419 42.0616 46.1761 42.1136C46.0152 42.161 45.8329 42.206 45.6293 42.2486C45.4257 42.2865 45.2221 42.322 45.0185 42.3551C44.8149 42.3835 44.6302 42.4096 44.4645 42.4332C44.1094 42.4853 43.7992 42.5682 43.5341 42.6818C43.2689 42.7955 43.063 42.9493 42.9162 43.1435C42.7694 43.3329 42.696 43.5696 42.696 43.8537C42.696 44.2656 42.8452 44.5805 43.1435 44.7983C43.4465 45.0114 43.83 45.1179 44.294 45.1179ZM51.9183 47V36.0909H54.9439V47H51.9183ZM53.4382 34.6847C52.9884 34.6847 52.6025 34.5355 52.2805 34.2372C51.9633 33.9342 51.8047 33.572 51.8047 33.1506C51.8047 32.7339 51.9633 32.3764 52.2805 32.0781C52.6025 31.7751 52.9884 31.6236 53.4382 31.6236C53.888 31.6236 54.2715 31.7751 54.5888 32.0781C54.9107 32.3764 55.0717 32.7339 55.0717 33.1506C55.0717 33.572 54.9107 33.9342 54.5888 34.2372C54.2715 34.5355 53.888 34.6847 53.4382 34.6847ZM60.3931 40.6932V47H57.3675V36.0909H60.2511V38.0156H60.3789C60.6204 37.3812 61.0252 36.8793 61.5934 36.5099C62.1616 36.1359 62.8505 35.9489 63.6602 35.9489C64.4177 35.9489 65.0782 36.1146 65.6417 36.446C66.2051 36.7775 66.6431 37.2509 66.9556 37.8665C67.2681 38.4773 67.4244 39.2064 67.4244 40.054V47H64.3988V40.5938C64.4035 39.9261 64.2331 39.4053 63.8874 39.0312C63.5418 38.6525 63.0659 38.4631 62.4599 38.4631C62.0527 38.4631 61.6928 38.5507 61.3803 38.7259C61.0726 38.901 60.8311 39.1567 60.6559 39.4929C60.4854 39.8243 60.3978 40.2244 60.3931 40.6932ZM78.8857 39.2017L76.1158 39.3722C76.0684 39.1354 75.9666 38.9223 75.8104 38.733C75.6541 38.5388 75.4482 38.3849 75.1925 38.2713C74.9415 38.1529 74.6409 38.0938 74.2905 38.0938C73.8217 38.0938 73.4264 38.1932 73.1044 38.392C72.7824 38.5862 72.6214 38.8466 72.6214 39.1733C72.6214 39.4337 72.7256 39.6539 72.9339 39.8338C73.1423 40.0137 73.4998 40.1581 74.0064 40.267L75.9808 40.6648C77.0414 40.8826 77.8321 41.233 78.353 41.7159C78.8738 42.1989 79.1342 42.8333 79.1342 43.6193C79.1342 44.3343 78.9235 44.9616 78.5021 45.5014C78.0855 46.0412 77.5125 46.4626 76.7834 46.7656C76.0589 47.0639 75.2232 47.2131 74.2763 47.2131C72.8321 47.2131 71.6816 46.9124 70.8246 46.3111C69.9723 45.705 69.4728 44.8812 69.326 43.8395L72.3018 43.6832C72.3918 44.1236 72.6096 44.4598 72.9553 44.6918C73.3009 44.919 73.7436 45.0327 74.2834 45.0327C74.8137 45.0327 75.2398 44.9309 75.5618 44.7273C75.8885 44.5189 76.0542 44.2514 76.0589 43.9247C76.0542 43.6501 75.9382 43.4252 75.7109 43.25C75.4837 43.0701 75.1333 42.9328 74.6598 42.8381L72.7706 42.4616C71.7053 42.2486 70.9122 41.8793 70.3913 41.3537C69.8752 40.8281 69.6172 40.1581 69.6172 39.3438C69.6172 38.643 69.8066 38.0393 70.1854 37.5327C70.5689 37.026 71.1063 36.6354 71.7976 36.3608C72.4936 36.0862 73.308 35.9489 74.2408 35.9489C75.6186 35.9489 76.7029 36.2401 77.4936 36.8224C78.2891 37.4048 78.7531 38.1979 78.8857 39.2017ZM86.842 36.0909V38.3636H80.2724V36.0909H86.842ZM81.7638 33.4773H84.7894V43.6477C84.7894 43.9271 84.832 44.1449 84.9173 44.3011C85.0025 44.4527 85.1209 44.5592 85.2724 44.6207C85.4286 44.6823 85.6085 44.7131 85.8121 44.7131C85.9542 44.7131 86.0962 44.7012 86.2383 44.6776C86.3803 44.6491 86.4892 44.6278 86.565 44.6136L87.0408 46.8651C86.8893 46.9124 86.6763 46.9669 86.4016 47.0284C86.127 47.0947 85.7932 47.1349 85.4002 47.1491C84.671 47.1776 84.0318 47.0805 83.4826 46.858C82.9381 46.6354 82.5143 46.2898 82.2113 45.821C81.9083 45.3523 81.7591 44.7604 81.7638 44.0455V33.4773ZM13.2642 67V52.4545H16.3395V58.456H22.5824V52.4545H25.6506V67H22.5824V60.9915H16.3395V67H13.2642ZM35.125 62.3551V56.0909H38.1506V67H35.2457V65.0185H35.1321C34.8859 65.6577 34.4763 66.1714 33.9034 66.5597C33.3352 66.9479 32.6416 67.142 31.8224 67.142C31.0933 67.142 30.4517 66.9763 29.8977 66.6449C29.3438 66.3134 28.9105 65.8423 28.598 65.2315C28.2902 64.6207 28.134 63.8892 28.1293 63.0369V56.0909H31.1548V62.4972C31.1596 63.1411 31.3324 63.6501 31.6733 64.0241C32.0142 64.3982 32.4711 64.5852 33.044 64.5852C33.4086 64.5852 33.7495 64.5024 34.0668 64.3366C34.384 64.1662 34.6397 63.9152 34.8338 63.5838C35.0327 63.2524 35.1297 62.8428 35.125 62.3551ZM40.5707 67V56.0909H43.4542V58.0156H43.582C43.8093 57.3764 44.1881 56.8722 44.7184 56.5028C45.2487 56.1335 45.8832 55.9489 46.6218 55.9489C47.3699 55.9489 48.0067 56.1359 48.5323 56.5099C49.0579 56.8793 49.4083 57.3812 49.5835 58.0156H49.6971C49.9196 57.3906 50.3221 56.8911 50.9045 56.517C51.4916 56.1383 52.1853 55.9489 52.9854 55.9489C54.0034 55.9489 54.8297 56.2732 55.4641 56.9219C56.1033 57.5658 56.4229 58.4796 56.4229 59.6634V67H53.4045V60.2599C53.4045 59.6539 53.2435 59.1993 52.9215 58.8963C52.5996 58.5933 52.1971 58.4418 51.7141 58.4418C51.1649 58.4418 50.7364 58.617 50.4286 58.9673C50.1209 59.313 49.967 59.7699 49.967 60.3381V67H47.0337V60.196C47.0337 59.661 46.8799 59.2348 46.5721 58.9176C46.2691 58.6004 45.869 58.4418 45.3718 58.4418C45.0356 58.4418 44.7326 58.527 44.4627 58.6974C44.1976 58.8632 43.9869 59.0975 43.8306 59.4006C43.6744 59.6989 43.5962 60.0492 43.5962 60.4517V67H40.5707ZM61.9237 67.206C61.2276 67.206 60.6074 67.0852 60.0629 66.8438C59.5183 66.5975 59.0875 66.2353 58.7702 65.7571C58.4577 65.2741 58.3015 64.6728 58.3015 63.9531C58.3015 63.3471 58.4128 62.8381 58.6353 62.4261C58.8578 62.0142 59.1609 61.6828 59.5444 61.4318C59.9279 61.1809 60.3635 60.9915 60.8512 60.8636C61.3436 60.7358 61.8597 60.6458 62.3995 60.5938C63.034 60.5275 63.5453 60.4659 63.9336 60.4091C64.3219 60.3475 64.6036 60.2576 64.7788 60.1392C64.954 60.0208 65.0415 59.8456 65.0415 59.6136V59.571C65.0415 59.1212 64.8995 58.7732 64.6154 58.527C64.3361 58.2808 63.9383 58.1577 63.4222 58.1577C62.8777 58.1577 62.4445 58.2784 62.1225 58.5199C61.8005 58.7566 61.5875 59.0549 61.4833 59.4148L58.685 59.1875C58.8271 58.5246 59.1064 57.9517 59.5231 57.4688C59.9397 56.9811 60.4772 56.607 61.1353 56.3466C61.7982 56.0814 62.5652 55.9489 63.4364 55.9489C64.0425 55.9489 64.6225 56.0199 65.1765 56.1619C65.7352 56.304 66.23 56.5241 66.6609 56.8224C67.0965 57.1207 67.4397 57.5043 67.6907 57.973C67.9416 58.437 68.0671 58.9934 68.0671 59.642V67H65.1978V65.4872H65.1126C64.9374 65.8281 64.703 66.1288 64.4094 66.3892C64.1159 66.6449 63.7631 66.8461 63.3512 66.9929C62.9393 67.1349 62.4634 67.206 61.9237 67.206ZM62.7901 65.1179C63.2352 65.1179 63.6282 65.0303 63.9691 64.8551C64.31 64.6752 64.5775 64.4337 64.7717 64.1307C64.9658 63.8277 65.0629 63.4844 65.0629 63.1009V61.9432C64.9682 62.0047 64.838 62.0616 64.6722 62.1136C64.5112 62.161 64.329 62.206 64.1254 62.2486C63.9218 62.2865 63.7182 62.322 63.5146 62.3551C63.311 62.3835 63.1263 62.4096 62.9606 62.4332C62.6055 62.4853 62.2953 62.5682 62.0302 62.6818C61.765 62.7955 61.5591 62.9493 61.4123 63.1435C61.2655 63.3329 61.1921 63.5696 61.1921 63.8537C61.1921 64.2656 61.3413 64.5805 61.6396 64.7983C61.9426 65.0114 62.3261 65.1179 62.7901 65.1179ZM73.44 60.6932V67H70.4144V56.0909H73.2979V58.0156H73.4258C73.6673 57.3812 74.0721 56.8793 74.6403 56.5099C75.2085 56.1359 75.8974 55.9489 76.707 55.9489C77.4646 55.9489 78.1251 56.1146 78.6886 56.446C79.252 56.7775 79.69 57.2509 80.0025 57.8665C80.315 58.4773 80.4712 59.2064 80.4712 60.054V67H77.4457V60.5938C77.4504 59.9261 77.2799 59.4053 76.9343 59.0312C76.5887 58.6525 76.1128 58.4631 75.5067 58.4631C75.0996 58.4631 74.7397 58.5507 74.4272 58.7259C74.1194 58.901 73.878 59.1567 73.7028 59.4929C73.5323 59.8243 73.4447 60.2244 73.44 60.6932ZM82.8558 67V56.0909H85.8814V67H82.8558ZM84.3757 54.6847C83.9259 54.6847 83.54 54.5355 83.218 54.2372C82.9008 53.9342 82.7422 53.572 82.7422 53.1506C82.7422 52.7339 82.9008 52.3764 83.218 52.0781C83.54 51.7751 83.9259 51.6236 84.3757 51.6236C84.8255 51.6236 85.209 51.7751 85.5263 52.0781C85.8482 52.3764 86.0092 52.7339 86.0092 53.1506C86.0092 53.572 85.8482 53.9342 85.5263 54.2372C85.209 54.5355 84.8255 54.6847 84.3757 54.6847ZM94.1076 56.0909V58.3636H87.538V56.0909H94.1076ZM89.0295 53.4773H92.055V63.6477C92.055 63.9271 92.0977 64.1449 92.1829 64.3011C92.2681 64.4527 92.3865 64.5592 92.538 64.6207C92.6942 64.6823 92.8742 64.7131 93.0778 64.7131C93.2198 64.7131 93.3619 64.7012 93.5039 64.6776C93.646 64.6491 93.7549 64.6278 93.8306 64.6136L94.3065 66.8651C94.1549 66.9124 93.9419 66.9669 93.6673 67.0284C93.3926 67.0947 93.0588 67.1349 92.6658 67.1491C91.9367 67.1776 91.2975 67.0805 90.7482 66.858C90.2037 66.6354 89.7799 66.2898 89.4769 65.821C89.1739 65.3523 89.0247 64.7604 89.0295 64.0455V53.4773ZM97.9464 71.0909C97.5629 71.0909 97.203 71.0601 96.8668 70.9986C96.5354 70.9418 96.2608 70.8684 96.043 70.7784L96.7248 68.5199C97.0799 68.6288 97.3995 68.688 97.6836 68.6974C97.9724 68.7069 98.221 68.6406 98.4293 68.4986C98.6424 68.3565 98.8152 68.1151 98.9478 67.7741L99.1254 67.3125L95.212 56.0909H98.3938L100.652 64.1023H100.766L103.046 56.0909H106.249L102.009 68.179C101.805 68.7661 101.528 69.2775 101.178 69.7131C100.832 70.1534 100.394 70.492 99.864 70.7287C99.3337 70.9702 98.6945 71.0909 97.9464 71.0909Z" fill="white"/>
</svg>
