<svg width="673" height="218" viewBox="0 0 673 218" fill="none" xmlns="http://www.w3.org/2000/svg">
<rect x="-2" y="54.4366" width="127" height="176" rx="10" transform="rotate(-20 -2 54.4366)" fill="black"/>
<rect x="94.7789" y="0.737684" width="124" height="173" rx="8.5" transform="rotate(10 94.7789 0.737684)" fill="white" stroke="black" stroke-width="3"/>
<path d="M276.02 69.75H266.065C265.884 68.4621 265.512 67.3182 264.952 66.3182C264.391 65.303 263.671 64.4394 262.793 63.7273C261.914 63.0151 260.899 62.4697 259.747 62.0909C258.611 61.7121 257.376 61.5227 256.043 61.5227C253.634 61.5227 251.535 62.1212 249.747 63.3182C247.959 64.5 246.573 66.2273 245.588 68.5C244.603 70.7576 244.111 73.5 244.111 76.7273C244.111 80.0455 244.603 82.8333 245.588 85.0909C246.588 87.3485 247.982 89.053 249.77 90.2045C251.558 91.3561 253.626 91.9318 255.974 91.9318C257.293 91.9318 258.512 91.7576 259.634 91.4091C260.77 91.0606 261.777 90.553 262.656 89.8864C263.535 89.2045 264.262 88.3788 264.838 87.4091C265.429 86.4394 265.838 85.3333 266.065 84.0909L276.02 84.1364C275.762 86.2727 275.118 88.3333 274.088 90.3182C273.073 92.2879 271.702 94.053 269.974 95.6136C268.262 97.1591 266.217 98.3864 263.838 99.2955C261.474 100.189 258.8 100.636 255.815 100.636C251.664 100.636 247.952 99.697 244.679 97.8182C241.421 95.9394 238.846 93.2197 236.952 89.6591C235.073 86.0985 234.134 81.7879 234.134 76.7273C234.134 71.6515 235.088 67.3333 236.997 63.7727C238.906 60.2121 241.497 57.5 244.77 55.6364C248.043 53.7576 251.724 52.8182 255.815 52.8182C258.512 52.8182 261.012 53.197 263.315 53.9545C265.634 54.7121 267.687 55.8182 269.474 57.2727C271.262 58.7121 272.717 60.4773 273.838 62.5682C274.974 64.6591 275.702 67.053 276.02 69.75ZM292.849 100.659C290.622 100.659 288.637 100.273 286.895 99.5C285.152 98.7121 283.774 97.553 282.759 96.0227C281.759 94.4773 281.259 92.553 281.259 90.25C281.259 88.3106 281.615 86.6818 282.327 85.3636C283.039 84.0455 284.009 82.9848 285.236 82.1818C286.463 81.3788 287.857 80.7727 289.418 80.3636C290.993 79.9545 292.645 79.6667 294.372 79.5C296.402 79.2879 298.039 79.0909 299.281 78.9091C300.524 78.7121 301.425 78.4242 301.986 78.0455C302.546 77.6667 302.827 77.1061 302.827 76.3636V76.2273C302.827 74.7879 302.372 73.6742 301.463 72.8864C300.569 72.0985 299.296 71.7045 297.645 71.7045C295.902 71.7045 294.516 72.0909 293.486 72.8636C292.455 73.6212 291.774 74.5758 291.44 75.7273L282.486 75C282.94 72.8788 283.834 71.0455 285.168 69.5C286.501 67.9394 288.221 66.7424 290.327 65.9091C292.448 65.0606 294.902 64.6364 297.69 64.6364C299.63 64.6364 301.486 64.8636 303.259 65.3182C305.046 65.7727 306.63 66.4773 308.009 67.4318C309.402 68.3864 310.501 69.6136 311.304 71.1136C312.107 72.5985 312.509 74.3788 312.509 76.4545V100H303.327V95.1591H303.054C302.493 96.25 301.743 97.2121 300.804 98.0455C299.865 98.8636 298.736 99.5076 297.418 99.9773C296.099 100.432 294.577 100.659 292.849 100.659ZM295.622 93.9773C297.046 93.9773 298.304 93.697 299.395 93.1364C300.486 92.5606 301.342 91.7879 301.963 90.8182C302.584 89.8485 302.895 88.75 302.895 87.5227V83.8182C302.592 84.0152 302.175 84.197 301.645 84.3636C301.13 84.5152 300.546 84.6591 299.895 84.7955C299.243 84.9167 298.592 85.0303 297.94 85.1364C297.289 85.2273 296.698 85.3106 296.168 85.3864C295.031 85.553 294.039 85.8182 293.19 86.1818C292.342 86.5455 291.683 87.0379 291.213 87.6591C290.743 88.2652 290.509 89.0227 290.509 89.9318C290.509 91.25 290.986 92.2576 291.94 92.9545C292.91 93.6364 294.137 93.9773 295.622 93.9773ZM320.02 100V65.0909H329.406V71.1818H329.77C330.406 69.0152 331.474 67.3788 332.974 66.2727C334.474 65.1515 336.202 64.5909 338.156 64.5909C338.641 64.5909 339.164 64.6212 339.724 64.6818C340.285 64.7424 340.777 64.8258 341.202 64.9318V73.5227C340.747 73.3864 340.118 73.2652 339.315 73.1591C338.512 73.053 337.777 73 337.111 73C335.687 73 334.414 73.3106 333.293 73.9318C332.187 74.5379 331.308 75.3864 330.656 76.4773C330.02 77.5682 329.702 78.8258 329.702 80.25V100H320.02ZM357.446 100.568C354.795 100.568 352.393 99.8864 350.241 98.5227C348.105 97.1439 346.408 95.1212 345.151 92.4545C343.908 89.7727 343.287 86.4848 343.287 82.5909C343.287 78.5909 343.931 75.2652 345.219 72.6136C346.507 69.947 348.219 67.9545 350.355 66.6364C352.507 65.303 354.863 64.6364 357.423 64.6364C359.378 64.6364 361.007 64.9697 362.31 65.6364C363.628 66.2879 364.688 67.1061 365.491 68.0909C366.31 69.0606 366.931 70.0152 367.355 70.9545H367.651V53.4545H377.31V100H367.764V94.4091H367.355C366.901 95.3788 366.257 96.3409 365.423 97.2955C364.605 98.2348 363.537 99.0152 362.219 99.6364C360.916 100.258 359.325 100.568 357.446 100.568ZM360.514 92.8636C362.075 92.8636 363.393 92.4394 364.469 91.5909C365.56 90.7273 366.393 89.5227 366.969 87.9773C367.56 86.4318 367.855 84.6212 367.855 82.5455C367.855 80.4697 367.567 78.6667 366.991 77.1364C366.416 75.6061 365.582 74.4242 364.491 73.5909C363.401 72.7576 362.075 72.3409 360.514 72.3409C358.923 72.3409 357.582 72.7727 356.491 73.6364C355.401 74.5 354.575 75.697 354.014 77.2273C353.454 78.7576 353.173 80.5303 353.173 82.5455C353.173 84.5758 353.454 86.3712 354.014 87.9318C354.59 89.4773 355.416 90.6894 356.491 91.5682C357.582 92.4318 358.923 92.8636 360.514 92.8636ZM414.315 75.0455L405.452 75.5909C405.3 74.8333 404.974 74.1515 404.474 73.5455C403.974 72.9242 403.315 72.4318 402.497 72.0682C401.694 71.6894 400.732 71.5 399.611 71.5C398.111 71.5 396.846 71.8182 395.815 72.4545C394.785 73.0758 394.27 73.9091 394.27 74.9545C394.27 75.7879 394.603 76.4924 395.27 77.0682C395.937 77.6439 397.08 78.1061 398.702 78.4545L405.02 79.7273C408.414 80.4242 410.944 81.5455 412.611 83.0909C414.277 84.6364 415.111 86.6667 415.111 89.1818C415.111 91.4697 414.437 93.4773 413.088 95.2045C411.755 96.9318 409.921 98.2803 407.588 99.25C405.27 100.205 402.596 100.682 399.565 100.682C394.944 100.682 391.262 99.7197 388.52 97.7955C385.793 95.8561 384.194 93.2197 383.724 89.8864L393.247 89.3864C393.535 90.7955 394.232 91.8712 395.338 92.6136C396.444 93.3409 397.861 93.7045 399.588 93.7045C401.285 93.7045 402.649 93.3788 403.679 92.7273C404.724 92.0606 405.255 91.2045 405.27 90.1591C405.255 89.2803 404.884 88.5606 404.156 88C403.429 87.4242 402.308 86.9848 400.793 86.6818L394.747 85.4773C391.338 84.7955 388.8 83.6136 387.134 81.9318C385.482 80.25 384.656 78.1061 384.656 75.5C384.656 73.2576 385.262 71.3258 386.474 69.7045C387.702 68.0833 389.421 66.8333 391.634 65.9545C393.861 65.0758 396.467 64.6364 399.452 64.6364C403.861 64.6364 407.33 65.5682 409.861 67.4318C412.406 69.2955 413.891 71.8333 414.315 75.0455ZM444.224 100H433.679L449.747 53.4545H462.429L478.474 100H467.929L456.27 64.0909H455.906L444.224 100ZM443.565 81.7045H468.474V89.3864H443.565V81.7045ZM497.997 113.818C494.861 113.818 492.171 113.386 489.929 112.523C487.702 111.674 485.929 110.515 484.611 109.045C483.293 107.576 482.437 105.924 482.043 104.091L490.997 102.886C491.27 103.583 491.702 104.235 492.293 104.841C492.884 105.447 493.664 105.932 494.634 106.295C495.618 106.674 496.815 106.864 498.224 106.864C500.33 106.864 502.065 106.348 503.429 105.318C504.808 104.303 505.497 102.598 505.497 100.205V93.8182H505.088C504.664 94.7879 504.027 95.7045 503.179 96.5682C502.33 97.4318 501.24 98.1364 499.906 98.6818C498.573 99.2273 496.982 99.5 495.134 99.5C492.512 99.5 490.126 98.8939 487.974 97.6818C485.838 96.4545 484.134 94.5833 482.861 92.0682C481.603 89.5379 480.974 86.3409 480.974 82.4773C480.974 78.5227 481.618 75.2197 482.906 72.5682C484.194 69.9167 485.906 67.9318 488.043 66.6136C490.194 65.2955 492.55 64.6364 495.111 64.6364C497.065 64.6364 498.702 64.9697 500.02 65.6364C501.338 66.2879 502.399 67.1061 503.202 68.0909C504.02 69.0606 504.649 70.0152 505.088 70.9545H505.452V65.0909H515.065V100.341C515.065 103.311 514.338 105.795 512.884 107.795C511.429 109.795 509.414 111.295 506.838 112.295C504.277 113.311 501.33 113.818 497.997 113.818ZM498.202 92.2273C499.762 92.2273 501.08 91.8409 502.156 91.0682C503.247 90.2803 504.08 89.1591 504.656 87.7045C505.247 86.2348 505.543 84.4773 505.543 82.4318C505.543 80.3864 505.255 78.6136 504.679 77.1136C504.103 75.5985 503.27 74.4242 502.179 73.5909C501.088 72.7576 499.762 72.3409 498.202 72.3409C496.611 72.3409 495.27 72.7727 494.179 73.6364C493.088 74.4848 492.262 75.6667 491.702 77.1818C491.141 78.697 490.861 80.447 490.861 82.4318C490.861 84.447 491.141 86.1894 491.702 87.6591C492.277 89.1136 493.103 90.2424 494.179 91.0455C495.27 91.8333 496.611 92.2273 498.202 92.2273ZM532.724 100.659C530.497 100.659 528.512 100.273 526.77 99.5C525.027 98.7121 523.649 97.553 522.634 96.0227C521.634 94.4773 521.134 92.553 521.134 90.25C521.134 88.3106 521.49 86.6818 522.202 85.3636C522.914 84.0455 523.884 82.9848 525.111 82.1818C526.338 81.3788 527.732 80.7727 529.293 80.3636C530.868 79.9545 532.52 79.6667 534.247 79.5C536.277 79.2879 537.914 79.0909 539.156 78.9091C540.399 78.7121 541.3 78.4242 541.861 78.0455C542.421 77.6667 542.702 77.1061 542.702 76.3636V76.2273C542.702 74.7879 542.247 73.6742 541.338 72.8864C540.444 72.0985 539.171 71.7045 537.52 71.7045C535.777 71.7045 534.391 72.0909 533.361 72.8636C532.33 73.6212 531.649 74.5758 531.315 75.7273L522.361 75C522.815 72.8788 523.709 71.0455 525.043 69.5C526.376 67.9394 528.096 66.7424 530.202 65.9091C532.323 65.0606 534.777 64.6364 537.565 64.6364C539.505 64.6364 541.361 64.8636 543.134 65.3182C544.921 65.7727 546.505 66.4773 547.884 67.4318C549.277 68.3864 550.376 69.6136 551.179 71.1136C551.982 72.5985 552.384 74.3788 552.384 76.4545V100H543.202V95.1591H542.929C542.368 96.25 541.618 97.2121 540.679 98.0455C539.74 98.8636 538.611 99.5076 537.293 99.9773C535.974 100.432 534.452 100.659 532.724 100.659ZM535.497 93.9773C536.921 93.9773 538.179 93.697 539.27 93.1364C540.361 92.5606 541.217 91.7879 541.838 90.8182C542.459 89.8485 542.77 88.75 542.77 87.5227V83.8182C542.467 84.0152 542.05 84.197 541.52 84.3636C541.005 84.5152 540.421 84.6591 539.77 84.7955C539.118 84.9167 538.467 85.0303 537.815 85.1364C537.164 85.2273 536.573 85.3106 536.043 85.3864C534.906 85.553 533.914 85.8182 533.065 86.1818C532.217 86.5455 531.558 87.0379 531.088 87.6591C530.618 88.2652 530.384 89.0227 530.384 89.9318C530.384 91.25 530.861 92.2576 531.815 92.9545C532.785 93.6364 534.012 93.9773 535.497 93.9773ZM559.895 100V65.0909H569.577V100H559.895ZM564.759 60.5909C563.319 60.5909 562.084 60.1136 561.054 59.1591C560.039 58.1894 559.531 57.0303 559.531 55.6818C559.531 54.3485 560.039 53.2045 561.054 52.25C562.084 51.2803 563.319 50.7955 564.759 50.7955C566.198 50.7955 567.425 51.2803 568.44 52.25C569.471 53.2045 569.986 54.3485 569.986 55.6818C569.986 57.0303 569.471 58.1894 568.44 59.1591C567.425 60.1136 566.198 60.5909 564.759 60.5909ZM587.014 79.8182V100H577.332V65.0909H586.56V71.25H586.969C587.741 69.2197 589.037 67.6136 590.855 66.4318C592.673 65.2348 594.878 64.6364 597.469 64.6364C599.893 64.6364 602.007 65.1667 603.81 66.2273C605.613 67.2879 607.014 68.803 608.014 70.7727C609.014 72.7273 609.514 75.0606 609.514 77.7727V100H599.832V79.5C599.848 77.3636 599.302 75.697 598.196 74.5C597.09 73.2879 595.567 72.6818 593.628 72.6818C592.325 72.6818 591.173 72.9621 590.173 73.5227C589.188 74.0833 588.416 74.9015 587.855 75.9773C587.31 77.0379 587.029 78.3182 587.014 79.8182ZM646.19 75.0455L637.327 75.5909C637.175 74.8333 636.849 74.1515 636.349 73.5455C635.849 72.9242 635.19 72.4318 634.372 72.0682C633.569 71.6894 632.607 71.5 631.486 71.5C629.986 71.5 628.721 71.8182 627.69 72.4545C626.66 73.0758 626.145 73.9091 626.145 74.9545C626.145 75.7879 626.478 76.4924 627.145 77.0682C627.812 77.6439 628.955 78.1061 630.577 78.4545L636.895 79.7273C640.289 80.4242 642.819 81.5455 644.486 83.0909C646.152 84.6364 646.986 86.6667 646.986 89.1818C646.986 91.4697 646.312 93.4773 644.963 95.2045C643.63 96.9318 641.796 98.2803 639.463 99.25C637.145 100.205 634.471 100.682 631.44 100.682C626.819 100.682 623.137 99.7197 620.395 97.7955C617.668 95.8561 616.069 93.2197 615.599 89.8864L625.122 89.3864C625.41 90.7955 626.107 91.8712 627.213 92.6136C628.319 93.3409 629.736 93.7045 631.463 93.7045C633.16 93.7045 634.524 93.3788 635.554 92.7273C636.599 92.0606 637.13 91.2045 637.145 90.1591C637.13 89.2803 636.759 88.5606 636.031 88C635.304 87.4242 634.183 86.9848 632.668 86.6818L626.622 85.4773C623.213 84.7955 620.675 83.6136 619.009 81.9318C617.357 80.25 616.531 78.1061 616.531 75.5C616.531 73.2576 617.137 71.3258 618.349 69.7045C619.577 68.0833 621.296 66.8333 623.509 65.9545C625.736 65.0758 628.342 64.6364 631.327 64.6364C635.736 64.6364 639.205 65.5682 641.736 67.4318C644.281 69.2955 645.766 71.8333 646.19 75.0455ZM671.651 65.0909V72.3636H650.628V65.0909H671.651ZM655.401 56.7273H665.082V89.2727C665.082 90.1667 665.219 90.8636 665.491 91.3636C665.764 91.8485 666.143 92.1894 666.628 92.3864C667.128 92.5833 667.704 92.6818 668.355 92.6818C668.81 92.6818 669.264 92.6439 669.719 92.5682C670.173 92.4773 670.522 92.4091 670.764 92.3636L672.287 99.5682C671.802 99.7197 671.12 99.8939 670.241 100.091C669.363 100.303 668.295 100.432 667.037 100.477C664.704 100.568 662.658 100.258 660.901 99.5455C659.158 98.8333 657.802 97.7273 656.832 96.2273C655.863 94.7273 655.385 92.8333 655.401 90.5455V56.7273ZM305.202 177V130.455H315.043V149.659H335.02V130.455H344.838V177H335.02V157.773H315.043V177H305.202ZM375.156 162.136V142.091H384.838V177H375.543V170.659H375.179C374.391 172.705 373.08 174.348 371.247 175.591C369.429 176.833 367.209 177.455 364.588 177.455C362.255 177.455 360.202 176.924 358.429 175.864C356.656 174.803 355.27 173.295 354.27 171.341C353.285 169.386 352.785 167.045 352.77 164.318V142.091H362.452V162.591C362.467 164.652 363.02 166.28 364.111 167.477C365.202 168.674 366.664 169.273 368.497 169.273C369.664 169.273 370.755 169.008 371.77 168.477C372.785 167.932 373.603 167.129 374.224 166.068C374.861 165.008 375.171 163.697 375.156 162.136ZM392.582 177V142.091H401.81V148.25H402.219C402.946 146.205 404.158 144.591 405.855 143.409C407.552 142.227 409.582 141.636 411.946 141.636C414.34 141.636 416.378 142.235 418.06 143.432C419.741 144.614 420.863 146.22 421.423 148.25H421.787C422.499 146.25 423.787 144.652 425.651 143.455C427.529 142.242 429.749 141.636 432.31 141.636C435.567 141.636 438.211 142.674 440.241 144.75C442.287 146.811 443.31 149.735 443.31 153.523V177H433.651V155.432C433.651 153.492 433.135 152.038 432.105 151.068C431.075 150.098 429.787 149.614 428.241 149.614C426.484 149.614 425.113 150.174 424.128 151.295C423.143 152.402 422.651 153.864 422.651 155.682V177H413.264V155.227C413.264 153.515 412.772 152.152 411.787 151.136C410.817 150.121 409.537 149.614 407.946 149.614C406.87 149.614 405.901 149.886 405.037 150.432C404.188 150.962 403.514 151.712 403.014 152.682C402.514 153.636 402.264 154.758 402.264 156.045V177H392.582ZM460.912 177.659C458.685 177.659 456.7 177.273 454.957 176.5C453.215 175.712 451.836 174.553 450.821 173.023C449.821 171.477 449.321 169.553 449.321 167.25C449.321 165.311 449.677 163.682 450.389 162.364C451.101 161.045 452.071 159.985 453.298 159.182C454.526 158.379 455.92 157.773 457.48 157.364C459.056 156.955 460.707 156.667 462.435 156.5C464.465 156.288 466.101 156.091 467.344 155.909C468.586 155.712 469.488 155.424 470.048 155.045C470.609 154.667 470.889 154.106 470.889 153.364V153.227C470.889 151.788 470.435 150.674 469.526 149.886C468.632 149.098 467.359 148.705 465.707 148.705C463.965 148.705 462.579 149.091 461.548 149.864C460.518 150.621 459.836 151.576 459.503 152.727L450.548 152C451.003 149.879 451.897 148.045 453.23 146.5C454.563 144.939 456.283 143.742 458.389 142.909C460.51 142.061 462.965 141.636 465.753 141.636C467.692 141.636 469.548 141.864 471.321 142.318C473.109 142.773 474.692 143.477 476.071 144.432C477.465 145.386 478.563 146.614 479.366 148.114C480.17 149.598 480.571 151.379 480.571 153.455V177H471.389V172.159H471.116C470.556 173.25 469.806 174.212 468.866 175.045C467.927 175.864 466.798 176.508 465.48 176.977C464.162 177.432 462.639 177.659 460.912 177.659ZM463.685 170.977C465.109 170.977 466.366 170.697 467.457 170.136C468.548 169.561 469.404 168.788 470.026 167.818C470.647 166.848 470.957 165.75 470.957 164.523V160.818C470.654 161.015 470.238 161.197 469.707 161.364C469.192 161.515 468.609 161.659 467.957 161.795C467.306 161.917 466.654 162.03 466.003 162.136C465.351 162.227 464.76 162.311 464.23 162.386C463.094 162.553 462.101 162.818 461.253 163.182C460.404 163.545 459.745 164.038 459.276 164.659C458.806 165.265 458.571 166.023 458.571 166.932C458.571 168.25 459.048 169.258 460.003 169.955C460.973 170.636 462.2 170.977 463.685 170.977ZM497.764 156.818V177H488.082V142.091H497.31V148.25H497.719C498.491 146.22 499.787 144.614 501.605 143.432C503.423 142.235 505.628 141.636 508.219 141.636C510.643 141.636 512.757 142.167 514.56 143.227C516.363 144.288 517.764 145.803 518.764 147.773C519.764 149.727 520.264 152.061 520.264 154.773V177H510.582V156.5C510.598 154.364 510.052 152.697 508.946 151.5C507.84 150.288 506.317 149.682 504.378 149.682C503.075 149.682 501.923 149.962 500.923 150.523C499.938 151.083 499.166 151.902 498.605 152.977C498.06 154.038 497.779 155.318 497.764 156.818ZM527.895 177V142.091H537.577V177H527.895ZM532.759 137.591C531.319 137.591 530.084 137.114 529.054 136.159C528.039 135.189 527.531 134.03 527.531 132.682C527.531 131.348 528.039 130.205 529.054 129.25C530.084 128.28 531.319 127.795 532.759 127.795C534.198 127.795 535.425 128.28 536.44 129.25C537.471 130.205 537.986 131.348 537.986 132.682C537.986 134.03 537.471 135.189 536.44 136.159C535.425 137.114 534.198 137.591 532.759 137.591ZM563.901 142.091V149.364H542.878V142.091H563.901ZM547.651 133.727H557.332V166.273C557.332 167.167 557.469 167.864 557.741 168.364C558.014 168.848 558.393 169.189 558.878 169.386C559.378 169.583 559.954 169.682 560.605 169.682C561.06 169.682 561.514 169.644 561.969 169.568C562.423 169.477 562.772 169.409 563.014 169.364L564.537 176.568C564.052 176.72 563.37 176.894 562.491 177.091C561.613 177.303 560.545 177.432 559.287 177.477C556.954 177.568 554.908 177.258 553.151 176.545C551.408 175.833 550.052 174.727 549.082 173.227C548.113 171.727 547.635 169.833 547.651 167.545V133.727ZM576.185 190.091C574.957 190.091 573.806 189.992 572.73 189.795C571.67 189.614 570.791 189.379 570.094 189.091L572.276 181.864C573.412 182.212 574.435 182.402 575.344 182.432C576.268 182.462 577.063 182.25 577.73 181.795C578.412 181.341 578.965 180.568 579.389 179.477L579.957 178L567.435 142.091H577.616L584.844 167.727H585.207L592.503 142.091H602.753L589.185 180.773C588.533 182.652 587.647 184.288 586.526 185.682C585.42 187.091 584.018 188.174 582.321 188.932C580.624 189.705 578.579 190.091 576.185 190.091Z" fill="black"/>
</svg>
